<svg width="32" height="32" viewBox="0 0 32 32" fill="none" xmlns="http://www.w3.org/2000/svg">
<path d="M18.3067 28C18.0723 28.4041 17.7358 28.7395 17.331 28.9727C16.9262 29.2059 16.4672 29.3286 16 29.3286C15.5329 29.3286 15.0739 29.2059 14.6691 28.9727C14.2642 28.7395 13.9278 28.4041 13.6934 28" stroke="black" stroke-width="2" stroke-linecap="round" stroke-linejoin="round"/>
<path d="M24.8401 17.3332C24.247 15.1617 23.9641 12.9172 24.0001 10.6665" stroke="black" stroke-width="2" stroke-linecap="round" stroke-linejoin="round"/>
<path d="M8.34667 8.34668C8.11502 9.09816 7.99815 9.88031 8 10.6667C8 20 4 22.6667 4 22.6667H22.6667" stroke="black" stroke-width="2" stroke-linecap="round" stroke-linejoin="round"/>
<path d="M24.0001 10.6667C24.0022 9.21741 23.6106 7.7948 22.8672 6.55078C22.1237 5.30676 21.0563 4.28807 19.7789 3.60351C18.5015 2.91895 17.0622 2.59425 15.6146 2.66408C14.167 2.73391 12.7656 3.19565 11.5601 3.99999" stroke="black" stroke-width="2" stroke-linecap="round" stroke-linejoin="round"/>
<path d="M1.33325 1.3335L30.6666 30.6668" stroke="black" stroke-width="2" stroke-linecap="round" stroke-linejoin="round"/>
</svg>
