<svg width="32" height="32" viewBox="0 0 32 32" fill="none" xmlns="http://www.w3.org/2000/svg">
<path d="M20.6668 10.0001L25.3335 5.33341M28.0001 2.66675L25.3335 5.33341L28.0001 2.66675ZM15.1868 15.4801C15.8752 16.1594 16.4225 16.9681 16.7971 17.8598C17.1717 18.7515 17.3663 19.7084 17.3695 20.6756C17.3727 21.6427 17.1846 22.601 16.816 23.4952C16.4474 24.3893 15.9055 25.2017 15.2216 25.8856C14.5378 26.5695 13.7254 27.1113 12.8312 27.48C11.937 27.8486 10.9788 28.0367 10.0116 28.0335C9.04448 28.0302 8.08751 27.8357 7.19584 27.4611C6.30417 27.0865 5.49541 26.5392 4.81612 25.8507C3.4803 24.4677 2.74114 22.6153 2.75785 20.6925C2.77455 18.7697 3.54579 16.9304 4.90545 15.5707C6.26511 14.2111 8.1044 13.4398 10.0272 13.4231C11.95 13.4064 13.8024 14.1456 15.1855 15.4814L15.1868 15.4801ZM15.1868 15.4801L20.6668 10.0001L15.1868 15.4801ZM20.6668 10.0001L24.6668 14.0001L29.3335 9.33341L25.3335 5.33341L20.6668 10.0001Z" stroke="black" stroke-width="2" stroke-linecap="round" stroke-linejoin="round"/>
</svg>
