<svg width="32" height="32" viewBox="0 0 32 32" fill="none" xmlns="http://www.w3.org/2000/svg">
<path d="M2.66675 26.6667H2.68008" stroke="black" stroke-width="2" stroke-linecap="round" stroke-linejoin="round"/>
<path d="M2.66675 21.4666C3.94794 21.7279 5.124 22.3602 6.04859 23.2847C6.97318 24.2093 7.60546 25.3854 7.86675 26.6666M2.66675 16.0666C5.37447 16.3677 7.89912 17.5813 9.82557 19.5078C11.752 21.4342 12.9656 23.9589 13.2667 26.6666M2.66675 10.6666V7.99992C2.66675 7.29267 2.9477 6.6144 3.4478 6.1143C3.94789 5.6142 4.62617 5.33325 5.33341 5.33325H26.6667C27.374 5.33325 28.0523 5.6142 28.5524 6.1143C29.0525 6.6144 29.3334 7.29267 29.3334 7.99992V23.9999C29.3334 24.7072 29.0525 25.3854 28.5524 25.8855C28.0523 26.3856 27.374 26.6666 26.6667 26.6666H18.6667" stroke="black" stroke-width="2" stroke-linecap="round" stroke-linejoin="round"/>
</svg>
