<svg width="32" height="32" viewBox="0 0 32 32" fill="none" xmlns="http://www.w3.org/2000/svg">
<path d="M1.33325 1.3335L30.6666 30.6668" stroke="black" stroke-width="2" stroke-linecap="round" stroke-linejoin="round"/>
<path d="M11.9999 4H19.9999L22.6666 8H27.9999C28.7072 8 29.3854 8.28095 29.8855 8.78105C30.3856 9.28115 30.6666 9.95942 30.6666 10.6667V23.12M20.3733 20.3733C19.9307 21.0201 19.3511 21.5613 18.6756 21.9586C18.0002 22.3559 17.2455 22.5995 16.4652 22.672C15.6849 22.7445 14.8982 22.6442 14.1611 22.3781C13.424 22.1121 12.7546 21.6869 12.2005 21.1328C11.6464 20.5787 11.2212 19.9092 10.9551 19.1721C10.6891 18.435 10.5888 17.6484 10.6613 16.8681C10.7338 16.0878 10.9773 15.3331 11.3746 14.6576C11.7719 13.9821 12.3132 13.4025 12.9599 12.96M27.9999 28H3.99992C3.29267 28 2.6144 27.719 2.1143 27.219C1.6142 26.7189 1.33325 26.0406 1.33325 25.3333V10.6667C1.33325 9.95942 1.6142 9.28115 2.1143 8.78105C2.6144 8.28095 3.29267 8 3.99992 8H7.99992L27.9999 28Z" stroke="black" stroke-width="2" stroke-linecap="round" stroke-linejoin="round"/>
</svg>
