<svg width="32" height="32" viewBox="0 0 32 32" fill="none" xmlns="http://www.w3.org/2000/svg">
<path d="M6.66675 7.33317C6.66675 6.09549 7.15841 4.90851 8.03358 4.03334C8.90875 3.15817 10.0957 2.6665 11.3334 2.6665H16.0001V11.9998H11.3334C10.0957 11.9998 8.90875 11.5082 8.03358 10.633C7.15841 9.75783 6.66675 8.57085 6.66675 7.33317Z" stroke="black" stroke-width="2" stroke-linecap="round" stroke-linejoin="round"/>
<path d="M16 2.6665H20.6667C21.2795 2.6665 21.8863 2.78721 22.4525 3.02173C23.0187 3.25625 23.5332 3.6 23.9665 4.03334C24.3998 4.46668 24.7436 4.98113 24.9781 5.54731C25.2126 6.1135 25.3333 6.72033 25.3333 7.33317C25.3333 7.94601 25.2126 8.55284 24.9781 9.11903C24.7436 9.68521 24.3998 10.1997 23.9665 10.633C23.5332 11.0663 23.0187 11.4101 22.4525 11.6446C21.8863 11.8791 21.2795 11.9998 20.6667 11.9998H16V2.6665Z" stroke="black" stroke-width="2" stroke-linecap="round" stroke-linejoin="round"/>
<path d="M16 16.6667C16 16.0538 16.1207 15.447 16.3552 14.8808C16.5898 14.3146 16.9335 13.8002 17.3668 13.3668C17.8002 12.9335 18.3146 12.5898 18.8808 12.3552C19.447 12.1207 20.0538 12 20.6667 12C21.2795 12 21.8863 12.1207 22.4525 12.3552C23.0187 12.5898 23.5332 12.9335 23.9665 13.3668C24.3998 13.8002 24.7436 14.3146 24.9781 14.8808C25.2126 15.447 25.3333 16.0538 25.3333 16.6667C25.3333 17.2795 25.2126 17.8863 24.9781 18.4525C24.7436 19.0187 24.3998 19.5332 23.9665 19.9665C23.5332 20.3998 23.0187 20.7436 22.4525 20.9781C21.8863 21.2126 21.2795 21.3333 20.6667 21.3333C20.0538 21.3333 19.447 21.2126 18.8808 20.9781C18.3146 20.7436 17.8002 20.3998 17.3668 19.9665C16.9335 19.5332 16.5898 19.0187 16.3552 18.4525C16.1207 17.8863 16 17.2795 16 16.6667V16.6667Z" stroke="black" stroke-width="2" stroke-linecap="round" stroke-linejoin="round"/>
<path d="M6.66675 26.0002C6.66675 24.7625 7.15841 23.5755 8.03358 22.7003C8.90875 21.8252 10.0957 21.3335 11.3334 21.3335H16.0001V26.0002C16.0001 27.2378 15.5084 28.4248 14.6332 29.3C13.7581 30.1752 12.5711 30.6668 11.3334 30.6668C10.0957 30.6668 8.90875 30.1752 8.03358 29.3C7.15841 28.4248 6.66675 27.2378 6.66675 26.0002Z" stroke="black" stroke-width="2" stroke-linecap="round" stroke-linejoin="round"/>
<path d="M6.66675 16.6667C6.66675 15.429 7.15841 14.242 8.03358 13.3668C8.90875 12.4917 10.0957 12 11.3334 12H16.0001V21.3333H11.3334C10.0957 21.3333 8.90875 20.8417 8.03358 19.9665C7.15841 19.0913 6.66675 17.9043 6.66675 16.6667Z" stroke="black" stroke-width="2" stroke-linecap="round" stroke-linejoin="round"/>
</svg>
