<svg width="32" height="32" viewBox="0 0 32 32" fill="none" xmlns="http://www.w3.org/2000/svg">
<path d="M16 29.3333H16.0133" stroke="black" stroke-width="2" stroke-linecap="round" stroke-linejoin="round"/>
<path d="M21.3333 26.6667H21.3466" stroke="black" stroke-width="2" stroke-linecap="round" stroke-linejoin="round"/>
<path d="M10.6667 26.6667H10.6801" stroke="black" stroke-width="2" stroke-linecap="round" stroke-linejoin="round"/>
<path d="M16 24H16.0133" stroke="black" stroke-width="2" stroke-linecap="round" stroke-linejoin="round"/>
<path d="M26.6666 23.4399C28.0683 22.8261 29.2161 21.7487 29.9174 20.3887C30.6187 19.0286 30.8308 17.4688 30.5181 15.9709C30.2054 14.473 29.3869 13.1282 28.2 12.1624C27.0132 11.1966 25.5302 10.6684 24 10.6666H22.32C21.8973 9.02997 21.0918 7.51721 19.9697 6.25301C18.8477 4.98881 17.4412 4.00938 15.8663 3.39544C14.2914 2.7815 12.5932 2.55063 10.9115 2.72187C9.22991 2.8931 7.61304 3.46154 6.19422 4.38032C4.7754 5.2991 3.59525 6.54192 2.75104 8.00634C1.90682 9.47076 1.42273 11.1148 1.33865 12.8031C1.25456 14.4913 1.57291 16.1754 2.26744 17.7164C2.96196 19.2575 4.01279 20.6114 5.3333 21.6666" stroke="black" stroke-width="2" stroke-linecap="round" stroke-linejoin="round"/>
<path d="M21.3333 21.3333H21.3466" stroke="black" stroke-width="2" stroke-linecap="round" stroke-linejoin="round"/>
<path d="M10.6667 21.3333H10.6801" stroke="black" stroke-width="2" stroke-linecap="round" stroke-linejoin="round"/>
</svg>
