<svg width="32" height="32" viewBox="0 0 32 32" fill="none" xmlns="http://www.w3.org/2000/svg">
<path d="M29.3334 16H2.66675" stroke="black" stroke-width="2" stroke-linecap="round" stroke-linejoin="round"/>
<path d="M7.26675 6.81325L2.66675 15.9999V23.9999C2.66675 24.7072 2.9477 25.3854 3.4478 25.8855C3.94789 26.3856 4.62617 26.6666 5.33341 26.6666H26.6667C27.374 26.6666 28.0523 26.3856 28.5524 25.8855C29.0525 25.3854 29.3334 24.7072 29.3334 23.9999V15.9999L24.7334 6.81325C24.5126 6.36897 24.1723 5.99508 23.7507 5.73362C23.3291 5.47217 22.8429 5.33352 22.3467 5.33325H9.65341C9.1573 5.33352 8.6711 5.47217 8.24947 5.73362C7.82785 5.99508 7.48752 6.36897 7.26675 6.81325V6.81325Z" stroke="black" stroke-width="2" stroke-linecap="round" stroke-linejoin="round"/>
<path d="M13.3333 21.3333H13.3466" stroke="black" stroke-width="2" stroke-linecap="round" stroke-linejoin="round"/>
<path d="M8 21.3333H8.01333" stroke="black" stroke-width="2" stroke-linecap="round" stroke-linejoin="round"/>
</svg>
