<svg width="32" height="32" viewBox="0 0 32 32" fill="none" xmlns="http://www.w3.org/2000/svg">
<path d="M19.9999 9.33325H23.9999C24.8754 9.33325 25.7423 9.50569 26.5511 9.84072C27.36 10.1758 28.0949 10.6668 28.714 11.2859C29.333 11.9049 29.8241 12.6399 30.1591 13.4487C30.4941 14.2575 30.6666 15.1244 30.6666 15.9999C30.6666 16.8754 30.4941 17.7423 30.1591 18.5511C29.8241 19.36 29.333 20.0949 28.714 20.714C28.0949 21.333 27.36 21.8241 26.5511 22.1591C25.7423 22.4941 24.8754 22.6666 23.9999 22.6666H19.9999M11.9999 22.6666H7.99992C7.12444 22.6666 6.25753 22.4941 5.4487 22.1591C4.63986 21.8241 3.90493 21.333 3.28587 20.714C2.03563 19.4637 1.33325 17.768 1.33325 15.9999C1.33325 14.2318 2.03563 12.5361 3.28587 11.2859C4.53612 10.0356 6.23181 9.33325 7.99992 9.33325H11.9999" stroke="black" stroke-width="2" stroke-linecap="round" stroke-linejoin="round"/>
<path d="M10.6667 16H21.3334" stroke="black" stroke-width="2" stroke-linecap="round" stroke-linejoin="round"/>
</svg>
