<svg width="32" height="32" viewBox="0 0 32 32" fill="none" xmlns="http://www.w3.org/2000/svg">
<path d="M26.6666 16V29.3333H5.33325V16" stroke="black" stroke-width="2" stroke-linecap="round" stroke-linejoin="round"/>
<path d="M29.3334 9.33325H2.66675V15.9999H29.3334V9.33325Z" stroke="black" stroke-width="2" stroke-linecap="round" stroke-linejoin="round"/>
<path d="M16 29.3333V9.33325" stroke="black" stroke-width="2" stroke-linecap="round" stroke-linejoin="round"/>
<path d="M16 9.33341H22C22.8841 9.33341 23.7319 8.98222 24.357 8.3571C24.9821 7.73198 25.3333 6.88414 25.3333 6.00008C25.3333 5.11603 24.9821 4.26818 24.357 3.64306C23.7319 3.01794 22.8841 2.66675 22 2.66675C17.3333 2.66675 16 9.33341 16 9.33341Z" stroke="black" stroke-width="2" stroke-linecap="round" stroke-linejoin="round"/>
<path d="M16.0001 9.33341H10.0001C9.11603 9.33341 8.26818 8.98222 7.64306 8.3571C7.01794 7.73198 6.66675 6.88414 6.66675 6.00008C6.66675 5.11603 7.01794 4.26818 7.64306 3.64306C8.26818 3.01794 9.11603 2.66675 10.0001 2.66675C14.6667 2.66675 16.0001 9.33341 16.0001 9.33341Z" stroke="black" stroke-width="2" stroke-linecap="round" stroke-linejoin="round"/>
</svg>
