<svg width="32" height="32" viewBox="0 0 32 32" fill="none" xmlns="http://www.w3.org/2000/svg">
<path d="M30.1466 22.6002C30.5762 21.5859 30.7477 20.481 30.646 19.3842C30.5442 18.2875 30.1723 17.233 29.5634 16.3151C28.9545 15.3972 28.1277 14.6444 27.1569 14.1241C26.186 13.6038 25.1014 13.3322 23.9999 13.3335H22.3199C21.7756 11.1901 20.5787 9.26894 18.8946 7.8357C17.2106 6.40247 15.1227 5.52807 12.9199 5.3335M6.66657 6.66683C4.58401 7.81835 2.94632 9.63321 2.01403 11.8227C1.08173 14.0122 0.908377 16.4506 1.52154 18.7499C2.13471 21.0493 3.49917 23.0776 5.39788 24.5122C7.29659 25.9467 9.6205 26.7052 11.9999 26.6668H23.9999C24.7729 26.6659 25.5399 26.5306 26.2666 26.2668" stroke="black" stroke-width="2" stroke-linecap="round" stroke-linejoin="round"/>
<path d="M1.33325 1.3335L30.6666 30.6668" stroke="black" stroke-width="2" stroke-linecap="round" stroke-linejoin="round"/>
</svg>
