<svg width="32" height="32" viewBox="0 0 32 32" fill="none" xmlns="http://www.w3.org/2000/svg">
<path d="M23.9999 5.3335H7.99992C6.52716 5.3335 5.33325 6.5274 5.33325 8.00016V24.0002C5.33325 25.4729 6.52716 26.6668 7.99992 26.6668H23.9999C25.4727 26.6668 26.6666 25.4729 26.6666 24.0002V8.00016C26.6666 6.5274 25.4727 5.3335 23.9999 5.3335Z" stroke="black" stroke-width="2" stroke-linecap="round" stroke-linejoin="round"/>
<path d="M20 12H12V20H20V12Z" stroke="black" stroke-width="2" stroke-linecap="round" stroke-linejoin="round"/>
<path d="M12 1.3335V5.3335" stroke="black" stroke-width="2" stroke-linecap="round" stroke-linejoin="round"/>
<path d="M20 1.3335V5.3335" stroke="black" stroke-width="2" stroke-linecap="round" stroke-linejoin="round"/>
<path d="M12 26.6665V30.6665" stroke="black" stroke-width="2" stroke-linecap="round" stroke-linejoin="round"/>
<path d="M20 26.6665V30.6665" stroke="black" stroke-width="2" stroke-linecap="round" stroke-linejoin="round"/>
<path d="M26.6667 12H30.6667" stroke="black" stroke-width="2" stroke-linecap="round" stroke-linejoin="round"/>
<path d="M26.6667 18.6665H30.6667" stroke="black" stroke-width="2" stroke-linecap="round" stroke-linejoin="round"/>
<path d="M1.33325 12H5.33325" stroke="black" stroke-width="2" stroke-linecap="round" stroke-linejoin="round"/>
<path d="M1.33325 18.6665H5.33325" stroke="black" stroke-width="2" stroke-linecap="round" stroke-linejoin="round"/>
</svg>
