<svg width="32" height="32" viewBox="0 0 32 32" fill="none" xmlns="http://www.w3.org/2000/svg">
<path d="M13.1999 5.65353C14.1177 5.4387 15.0573 5.33131 15.9999 5.33353C25.3333 5.33353 30.6666 16.0002 30.6666 16.0002C29.8572 17.5143 28.892 18.9398 27.7866 20.2535M18.8266 18.8269C18.4604 19.2199 18.0188 19.5351 17.5281 19.7537C17.0375 19.9723 16.5078 20.0899 15.9707 20.0994C15.4336 20.1088 14.9001 20.01 14.4021 19.8089C13.904 19.6077 13.4515 19.3082 13.0717 18.9284C12.6919 18.5486 12.3924 18.0961 12.1913 17.598C11.9901 17.1 11.8913 16.5665 11.9008 16.0294C11.9102 15.4923 12.0278 14.9627 12.2464 14.472C12.465 13.9813 12.7803 13.5397 13.1733 13.1735M23.9199 23.9202C21.6407 25.6575 18.8654 26.62 15.9999 26.6669C6.66658 26.6669 1.33325 16.0002 1.33325 16.0002C2.99177 12.9094 5.2921 10.209 8.07992 8.0802L23.9199 23.9202Z" stroke="black" stroke-width="2" stroke-linecap="round" stroke-linejoin="round"/>
<path d="M1.33325 1.3335L30.6666 30.6668" stroke="black" stroke-width="2" stroke-linecap="round" stroke-linejoin="round"/>
</svg>
