<svg width="32" height="32" viewBox="0 0 32 32" fill="none" xmlns="http://www.w3.org/2000/svg">
<path d="M24.0001 13.3333H22.3201C21.8212 11.4012 20.7905 9.6479 19.3449 8.27245C17.8994 6.89699 16.097 5.95457 14.1426 5.55229C12.1882 5.15 10.1602 5.30397 8.28894 5.99671C6.41768 6.68944 4.77825 7.89317 3.55694 9.47109C2.33562 11.049 1.58139 12.9379 1.37994 14.9231C1.1785 16.9082 1.53792 18.9101 2.41737 20.7012C3.29681 22.4923 4.66102 24.0008 6.35497 25.0553C8.04893 26.1098 10.0047 26.6681 12.0001 26.6666H24.0001C25.7682 26.6666 27.4639 25.9642 28.7141 24.714C29.9644 23.4637 30.6667 21.768 30.6667 19.9999C30.6667 18.2318 29.9644 16.5361 28.7141 15.2859C27.4639 14.0356 25.7682 13.3333 24.0001 13.3333Z" stroke="black" stroke-width="2" stroke-linecap="round" stroke-linejoin="round"/>
</svg>
