<svg width="32" height="32" viewBox="0 0 32 32" fill="none" xmlns="http://www.w3.org/2000/svg">
<path d="M13.3333 17.3332C13.9059 18.0987 14.6364 18.7321 15.4753 19.1905C16.3142 19.6488 17.2419 19.9214 18.1955 19.9896C19.149 20.0579 20.106 19.9204 21.0017 19.5862C21.8974 19.2521 22.7107 18.7293 23.3866 18.0532L27.3866 14.0532C28.601 12.7959 29.2729 11.1118 29.2577 9.36386C29.2426 7.61589 28.5414 5.9438 27.3054 4.70775C26.0693 3.47169 24.3972 2.77057 22.6493 2.75538C20.9013 2.74019 19.2173 3.41215 17.9599 4.62654L15.6666 6.90654" stroke="black" stroke-width="2" stroke-linecap="round" stroke-linejoin="round"/>
<path d="M18.6667 14.6666C18.0941 13.9011 17.3635 13.2677 16.5246 12.8094C15.6857 12.351 14.758 12.0785 13.8045 12.0102C12.851 11.9419 11.8939 12.0795 10.9982 12.4136C10.1026 12.7477 9.2892 13.2705 8.61336 13.9466L4.61336 17.9466C3.39897 19.204 2.72701 20.888 2.7422 22.636C2.75738 24.384 3.45851 26.056 4.69457 27.2921C5.93062 28.5282 7.6027 29.2293 9.35068 29.2445C11.0987 29.2597 12.7827 28.5877 14.04 27.3733L16.32 25.0933" stroke="black" stroke-width="2" stroke-linecap="round" stroke-linejoin="round"/>
</svg>
