<svg width="32" height="32" viewBox="0 0 32 32" fill="none" xmlns="http://www.w3.org/2000/svg">
<path d="M8 16H20C21.4145 16 22.771 16.5619 23.7712 17.5621C24.7714 18.5623 25.3333 19.9188 25.3333 21.3333C25.3333 22.7478 24.7714 24.1044 23.7712 25.1046C22.771 26.1048 21.4145 26.6667 20 26.6667H8V16Z" stroke="black" stroke-width="2" stroke-linecap="round" stroke-linejoin="round"/>
<path d="M8 5.33325H18.6667C20.0812 5.33325 21.4377 5.89515 22.4379 6.89535C23.4381 7.89554 24 9.2521 24 10.6666C24 12.0811 23.4381 13.4376 22.4379 14.4378C21.4377 15.438 20.0812 15.9999 18.6667 15.9999H8V5.33325Z" stroke="black" stroke-width="2" stroke-linecap="round" stroke-linejoin="round"/>
</svg>
