<svg width="32" height="32" viewBox="0 0 32 32" fill="none" xmlns="http://www.w3.org/2000/svg">
<path d="M26.6667 12H14.6667C13.1939 12 12 13.1939 12 14.6667V26.6667C12 28.1394 13.1939 29.3333 14.6667 29.3333H26.6667C28.1394 29.3333 29.3333 28.1394 29.3333 26.6667V14.6667C29.3333 13.1939 28.1394 12 26.6667 12Z" stroke="black" stroke-width="2" stroke-linecap="round" stroke-linejoin="round"/>
<path d="M6.66675 19.9998H5.33341C4.62617 19.9998 3.94789 19.7189 3.4478 19.2188C2.9477 18.7187 2.66675 18.0404 2.66675 17.3332V5.33317C2.66675 4.62593 2.9477 3.94765 3.4478 3.44755C3.94789 2.94746 4.62617 2.6665 5.33341 2.6665H17.3334C18.0407 2.6665 18.7189 2.94746 19.219 3.44755C19.7191 3.94765 20.0001 4.62593 20.0001 5.33317V6.6665" stroke="black" stroke-width="2" stroke-linecap="round" stroke-linejoin="round"/>
</svg>
